# xmcd CD database file
#
# Track frame offsets:
#	150
#	11438
#	28225
#	41906
#	53941
#	68290
#	81763
#	95522
#	109265
#	124269
#	133572
#	148479
#	161198
#	174418
#	184344
#	196936
#	203981
#	221561
#	232112
#	248916
#	257937
#	270494
#
# Disc length: 3735 seconds
#
# Revision: 0
# Processed by: cddbd v1.5.2PL0 Copyright (c) Steve Scherf et al.
# Submitted via: CDex 1.75
#
DISCID=500e9516
DTITLE=June Christy - June Christy Vol.2 - CD1
DYEAR=2013
DGENRE=Jazz
TTITLE0=Anytime
TTITLE1=A Sunday Kind Of Love
TTITLE2=I Hear A Rhapsody
TTITLE3=You Don't Know What Love Is
TTITLE4=For Heaven's Sake
TTITLE5=S'Posin'
TTITLE6=He's Funny That Way
TTITLE7=Taking A Chance On Love
TTITLE8=Imagination
TTITLE9=All God's Chillun Got Rhythm
TTITLE10=That's All
TTITLE11=I Didn't Know About You
TTITLE12=Day Dream
TTITLE13=Sing Something Simple
TTITLE14=Maybe You'll Be There
TTITLE15=Drealy Beloved
TTITLE16='Round Midnight
TTITLE17=A Lovely Way To Spend An Evening
TTITLE18=The Wind
TTITLE19=This Year's Kisses
TTITLE20=For All We Know
TTITLE21=There's No You
EXTD=YEAR: 2013
EXTT0=
EXTT1=
EXTT2=
EXTT3=
EXTT4=
EXTT5=
EXTT6=
EXTT7=
EXTT8=
EXTT9=
EXTT10=
EXTT11=
EXTT12=
EXTT13=
EXTT14=
EXTT15=
EXTT16=
EXTT17=
EXTT18=
EXTT19=
EXTT20=
EXTT21=
PLAYORDER=
